# This file uses centimeters as units for non-parametric coordinates.

mtllib 01.mtl
g default
v 31.625561 18.690760 52.240200
v 31.625561 18.690760 35.500141
v 36.607170 18.690760 35.500141
v 41.588779 18.690760 35.500141
v 46.570389 18.690760 35.500141
v 51.551991 18.690760 35.500141
v 51.551991 18.690760 52.240200
v 36.607170 25.494370 16.143259
v 41.588779 25.494370 16.143259
v 46.570389 25.494370 16.143259
v 46.570389 18.690760 16.196600
v 51.551991 18.690760 16.196600
v 31.625561 18.690760 16.196600
v 36.607170 18.690760 16.196600
v 41.588779 25.494370 5.429834
v 46.570389 25.494370 5.429834
v 36.607170 25.494370 5.429834
v 28.085991 25.494370 16.143259
v 28.085991 25.494370 -2.207285
v 9.930672 25.494370 16.143259
v 9.930672 25.494370 -2.207285
v 9.930672 25.494370 -9.078949
v 28.085991 25.494370 -9.078949
v 41.588776 18.690760 52.240200
v 36.607170 18.690760 52.240200
v 46.570381 18.690760 52.240200
vt 0.254877 0.431320
vt 0.362744 0.431320
vt 0.362744 0.793794
vt 0.254877 0.793794
vt 0.039143 0.793794
vt 0.039143 0.431320
vt 0.147010 0.431320
vt 0.147010 0.793794
vt 0.879493 0.036258
vt 0.879493 0.511239
vt 0.764170 0.511239
vt 0.764170 0.036258
vt 0.648846 0.511239
vt 0.648846 0.036258
vt 0.147010 0.013339
vt 0.039143 0.013339
vt 0.470612 0.013339
vt 0.470612 0.431320
vt 0.362744 0.013339
vt 0.436950 0.809043
vt 0.436950 0.997798
vt 0.349181 0.997798
vt 0.349181 0.809043
vt 0.524719 0.809043
vt 0.524719 0.997798
vt 0.674849 0.997798
vt 0.674849 0.674488
vt 0.994720 0.997798
vt 0.994720 0.674488
vt 0.994720 0.553419
vt 0.674849 0.553419
vt 0.470612 0.793794
vn 0.000000 1.000000 0.000000
vn 0.000000 1.000000 0.000000
vn 0.000000 1.000000 -0.000000
vn 0.000000 1.000000 -0.000000
vn 0.000000 1.000000 0.000000
vn 0.000000 1.000000 0.000000
vn 0.000000 1.000000 0.000000
vn 0.000000 1.000000 -0.000000
vn 0.000000 0.943421 0.331596
vn 0.000000 0.943421 0.331596
vn 0.000000 0.943421 0.331596
vn 0.000000 0.943421 0.331596
vn 0.000000 0.943421 0.331596
vn 0.000000 0.943421 0.331596
vn 0.000000 0.943421 0.331596
vn 0.000000 0.943421 0.331596
vn 0.000000 1.000000 0.000000
vn 0.000000 1.000000 0.000000
vn 0.000000 1.000000 0.000000
vn 0.000000 1.000000 0.000000
vn 0.000000 1.000000 0.000000
vn 0.000000 1.000000 0.000000
vn 0.000000 1.000000 0.000000
vn 0.000000 1.000000 0.000000
vn 0.000000 1.000000 0.000000
vn 0.000000 1.000000 0.000000
vn 0.000000 1.000000 0.000000
vn 0.000000 1.000000 0.000000
vn 0.000000 1.000000 0.000000
vn 0.000000 1.000000 0.000000
vn 0.000000 1.000000 0.000000
vn 0.000000 1.000000 0.000000
vn 0.000000 1.000000 0.000000
vn 0.000000 1.000000 0.000000
vn 0.000000 1.000000 0.000000
vn 0.000000 1.000000 0.000000
vn 0.000000 1.000000 0.000000
vn 0.000000 1.000000 0.000000
vn 0.000000 1.000000 0.000000
vn 0.000000 1.000000 0.000000
vn 0.000000 1.000000 0.000000
vn 0.000000 1.000000 0.000000
vn 0.000000 1.000000 0.000000
vn 0.000000 1.000000 0.000000
vn 0.000000 1.000000 0.000000
vn 0.000000 1.000000 0.000000
s 1
g polySurface6 Sprite_Stage02:Sprite
usemtl blinn3SG
f 4/1/1 3/2/2 25/3/3 24/4/4
f 7/5/5 6/6/6 5/7/7 26/8/8
s off
f 8/9/9 3/10/10 4/11/11 9/12/12
f 9/12/13 4/11/14 5/13/15 10/14/16
f 11/15/17 5/7/18 6/6/19 12/16/20
f 13/17/21 2/18/22 3/2/23 14/19/24
f 15/20/25 9/21/26 10/22/27 16/23/28
f 17/24/29 8/25/30 9/21/31 15/20/32
f 18/26/33 8/25/34 17/24/35 19/27/36
f 20/28/37 18/26/38 19/27/39 21/29/40
f 22/30/41 21/29/42 19/27/43 23/31/44
s 1
f 25/3/3 3/2/2 2/18/45 1/32/46
f 26/8/8 5/7/7 4/1/1 24/4/4
g default
v 31.625561 14.120000 85.568314
v -13.556340 14.120000 70.508118
v 31.625561 14.120000 70.508118
v -13.556340 14.120000 85.568314
v 51.551991 14.120000 70.508118
v 51.551991 14.120000 85.568314
v 51.551991 14.120000 95.406487
v 31.625561 14.120000 95.406487
v 31.625561 14.120000 60.928860
v 51.551991 14.120000 60.928860
v -4.284931 2.797814 95.406487
v 8.588177 2.797814 85.568314
v 8.588177 2.797814 95.406487
v -4.284931 2.797814 85.568314
v 16.517490 2.797814 95.406487
v 25.369761 2.797814 85.568314
v 25.369761 2.797814 95.406487
v 16.517490 2.797814 85.568314
vt 0.306051 0.378437
vt 0.306051 0.147128
vt 1.000000 0.147128
vt 1.000000 0.378437
vt 0.000000 0.147128
vt 0.000000 0.378437
vt 0.000000 0.529542
vt 0.306051 0.529542
vt 0.306051 0.000000
vt 0.000000 0.000000
vt 0.523033 0.969886
vt 0.014070 0.969886
vt 0.014070 0.580915
vt 0.523033 0.580915
vt 0.927361 0.969887
vt 0.577371 0.969887
vt 0.577371 0.580915
vt 0.927361 0.580915
vn 0.000000 1.000000 0.000000
vn 0.000000 1.000000 0.000000
vn 0.000000 1.000000 0.000000
vn 0.000000 1.000000 0.000000
vn 0.000000 1.000000 0.000000
vn 0.000000 1.000000 0.000000
vn 0.000000 1.000000 0.000000
vn 0.000000 1.000000 0.000000
vn 0.000000 1.000000 0.000000
vn 0.000000 1.000000 0.000000
vn 0.000000 1.000000 0.000000
vn 0.000000 1.000000 0.000000
vn 0.000000 1.000000 0.000000
vn 0.000000 1.000000 0.000000
vn 0.000000 1.000000 0.000000
vn 0.000000 1.000000 0.000000
vn 0.000000 1.000000 0.000000
vn 0.000000 1.000000 0.000000
vn 0.000000 1.000000 0.000000
vn 0.000000 1.000000 0.000000
vn 0.000000 1.000000 0.000000
vn 0.000000 1.000000 0.000000
vn 0.000000 1.000000 0.000000
vn 0.000000 1.000000 0.000000
s off
g polySurface2
usemtl blinn1SG
f 27/33/47 29/34/48 28/35/49 30/36/50
f 31/37/51 29/34/52 27/33/53 32/38/54
f 33/39/55 32/38/56 27/33/57 34/40/58
f 35/41/59 29/34/60 31/37/61 36/42/62
f 37/43/63 39/44/64 38/45/65 40/46/66
f 41/47/67 43/48/68 42/49/69 44/50/70
g default
v -23.490240 14.120000 13.809860
v -23.490240 14.120000 18.653629
v -43.330441 14.120000 13.809860
v -43.330441 14.120000 18.653629
v -23.490240 14.120000 33.524960
v -43.330441 14.120000 33.524960
v -13.556340 14.120000 18.653629
v -13.556340 14.120000 33.524960
v 0.021061 14.120000 18.653629
v 0.021061 14.120000 33.524960
v 0.021061 14.120000 62.441429
v -13.556340 14.120000 55.217159
v 0.021061 14.120000 55.217159
v -13.556340 14.120000 62.441429
v -11.702140 14.120000 39.344700
v -1.833136 14.120000 39.344700
v -1.833136 14.120000 49.397419
v -11.702140 14.120000 49.397419
v -11.702140 11.178010 39.344700
v -1.833136 11.178010 39.344700
v -1.833136 11.178010 49.397419
v -11.702140 11.178010 49.397419
v -28.120350 9.924581 62.441429
v -28.120350 9.924581 55.217159
v -43.217010 9.924581 62.441429
v -43.217010 9.924581 55.217159
v -28.120350 9.924581 70.322830
v -43.217010 9.924581 70.322830
v -13.215110 5.665645 62.441429
v -13.215110 5.665645 70.322830
v 1.323502 5.665645 62.441429
v 1.323502 5.665645 70.322830
v -13.215110 5.665645 36.836948
v 1.323502 5.665645 36.836948
v -40.489552 18.144779 0.708561
v -26.453239 18.144779 13.809860
v -40.489552 18.144779 13.809860
v -26.453239 18.144779 0.708561
vt 0.407040 0.083858
vt 0.407040 0.000000
vt 0.750523 0.000000
vt 0.750524 0.083858
vt 0.407040 0.341319
vt 0.750524 0.341319
vt 0.235059 0.083858
vt 0.235059 0.341319
vt 0.000000 0.083858
vt 0.000000 0.341319
vt 0.000000 0.841935
vt 0.000000 0.716865
vt 0.235059 0.716865
vt 0.235059 0.841935
vt 0.202958 0.442073
vt 0.032101 0.442073
vt 0.032101 0.616111
vt 0.202958 0.616111
vt 0.968061 0.133059
vt 0.776901 0.133059
vt 0.776901 0.076074
vt 0.968061 0.076074
vt 0.400369 0.072589
vt 0.205651 0.072589
vt 0.205651 0.015604
vt 0.400369 0.015604
vt 0.968061 0.066234
vt 0.776901 0.066234
vt 0.776901 0.009249
vt 0.968061 0.009249
vt 0.199795 0.071792
vt 0.005077 0.071792
vt 0.005077 0.014806
vt 0.199795 0.014806
vt 0.820549 0.725133
vt 0.820549 0.462740
vt 0.945619 0.462740
vt 0.945619 0.725133
vt 0.803027 0.515774
vt 0.541666 0.515774
vt 0.541666 0.390704
vt 0.803027 0.390704
vt 0.541666 0.652221
vt 0.803027 0.652221
vt 0.960093 0.154358
vt 0.960093 0.422733
vt 0.823646 0.422733
vt 0.823646 0.154358
vt 0.265967 0.838143
vt 0.517667 0.838143
vt 0.517667 0.974590
vt 0.265967 0.974590
vt 0.517667 0.394864
vt 0.265967 0.394864
vt 0.784718 0.709288
vt 0.784718 0.936105
vt 0.541714 0.936105
vt 0.541714 0.709288
vn 0.000000 1.000000 0.000000
vn 0.000000 1.000000 0.000000
vn 0.000000 1.000000 0.000000
vn 0.000000 1.000000 0.000000
vn 0.000000 1.000000 0.000000
vn 0.000000 1.000000 0.000000
vn 0.000000 1.000000 0.000000
vn 0.000000 1.000000 0.000000
vn 0.000000 1.000000 0.000000
vn 0.000000 1.000000 0.000000
vn 0.000000 1.000000 0.000000
vn 0.000000 1.000000 0.000000
vn 0.000000 1.000000 0.000000
vn 0.000000 1.000000 0.000000
vn 0.000000 1.000000 0.000000
vn 0.000000 1.000000 0.000000
vn 0.000000 1.000000 0.000000
vn 0.000000 1.000000 0.000000
vn 0.000000 1.000000 0.000000
vn 0.000000 1.000000 0.000000
vn 0.000000 1.000000 0.000000
vn 0.000000 1.000000 0.000000
vn 0.000000 1.000000 0.000000
vn 0.000000 1.000000 0.000000
vn 0.000000 1.000000 0.000000
vn 0.000000 1.000000 0.000000
vn 0.000000 1.000000 0.000000
vn 0.000000 1.000000 0.000000
vn 0.000000 1.000000 0.000000
vn 0.000000 1.000000 0.000000
vn 0.000000 1.000000 0.000000
vn 0.000000 1.000000 0.000000
vn 0.000000 1.000000 0.000000
vn 0.000000 1.000000 0.000000
vn 0.000000 1.000000 0.000000
vn 0.000000 1.000000 0.000000
vn 0.000000 0.000000 1.000000
vn 0.000000 0.000000 1.000000
vn 0.000000 0.000000 1.000000
vn 0.000000 0.000000 1.000000
vn -1.000000 0.000000 0.000000
vn -1.000000 0.000000 0.000000
vn -1.000000 0.000000 0.000000
vn -1.000000 0.000000 0.000000
vn 0.000000 0.000000 -1.000000
vn 0.000000 0.000000 -1.000000
vn 0.000000 0.000000 -1.000000
vn 0.000000 0.000000 -1.000000
vn 1.000000 0.000000 0.000000
vn 1.000000 0.000000 0.000000
vn 1.000000 0.000000 0.000000
vn 1.000000 0.000000 0.000000
vn -0.276811 0.960924 0.000000
vn -0.276811 0.960924 0.000000
vn -0.276811 0.960924 0.000000
vn -0.276811 0.960924 0.000000
vn 0.000000 1.000000 0.000000
vn 0.000000 1.000000 0.000000
vn 0.000000 1.000000 0.000000
vn 0.000000 1.000000 0.000000
vn 0.000000 1.000000 0.000000
vn 0.000000 1.000000 0.000000
vn 0.000000 1.000000 0.000000
vn 0.000000 1.000000 0.000000
vn 0.274739 0.961519 0.000000
vn 0.274739 0.961519 0.000000
vn 0.274739 0.961519 0.000000
vn 0.274739 0.961519 0.000000
vn 0.000000 1.000000 0.000000
vn 0.000000 1.000000 0.000000
vn 0.000000 1.000000 0.000000
vn 0.000000 1.000000 0.000000
vn 0.000000 1.000000 0.000000
vn 0.000000 1.000000 0.000000
vn 0.000000 1.000000 0.000000
vn 0.000000 1.000000 0.000000
vn 0.000000 1.000000 0.000000
vn 0.000000 1.000000 0.000000
vn 0.000000 1.000000 0.000000
vn 0.000000 1.000000 0.000000
s off
g polySurface1
usemtl blinn2SG
f 46/51/71 45/52/72 47/53/73 48/54/74
f 49/55/75 46/51/76 48/54/77 50/56/78
f 51/57/79 46/51/80 49/55/81 52/58/82
f 53/59/83 51/57/84 52/58/85 54/60/86
f 55/61/87 57/62/88 56/63/89 58/64/90
f 54/60/91 52/58/92 59/65/93 60/66/94
f 57/62/95 54/60/96 60/66/97 61/67/98
f 56/63/99 57/62/100 61/67/101 62/68/102
f 52/58/103 56/63/104 62/68/105 59/65/106
f 60/69/107 59/70/108 63/71/109 64/72/110
f 61/73/111 60/74/112 64/75/113 65/76/114
f 62/77/115 61/78/116 65/79/117 66/80/118
f 59/81/119 62/82/120 66/83/121 63/84/122
f 67/85/123 58/86/124 56/87/125 68/88/126
f 69/89/127 67/90/128 68/91/129 70/92/130
f 71/93/131 67/90/132 69/89/133 72/94/134
f 73/95/135 67/96/136 71/97/137 74/98/138
f 75/99/139 73/100/140 74/101/141 76/102/142
f 77/103/143 73/100/144 75/99/145 78/104/146
f 79/105/147 81/106/148 80/107/149 82/108/150
