# This file uses centimeters as units for non-parametric coordinates.

mtllib grass_test.mtl
g default
v -4.276943 2.430130 0.390871
v 2.759769 2.430130 3.291624
v -4.450718 6.480345 0.319235
v 3.929935 6.480345 3.774004
v 3.929935 10.530564 3.774004
v -2.340599 10.530564 1.189093
v -3.559128 0.000000 0.686777
v 2.057671 0.000000 3.002197
v -3.857670 1.215064 2.150232
v -4.119312 5.265281 3.112583
v -3.779179 0.000000 1.861526
v -3.001007 0.000000 -1.000690
v -2.930473 1.215064 -1.260124
v -2.695362 5.265281 -2.124894
v -3.008080 9.315498 -0.974678
v 1.131672 2.430130 -5.039125
v 4.189354 2.430130 1.930827
v 1.056160 6.480345 -5.211253
v 4.697830 6.480345 3.089892
v 4.697830 10.530564 3.089892
v 1.973076 10.530564 -3.121150
v 1.443584 0.000000 -4.328121
v 3.884270 0.000000 1.235391
v -4.148857 2.430130 -0.502482
v 3.292358 2.430130 -2.101849
v -4.332623 6.480345 -0.462985
v 4.529793 6.480345 -2.367815
v 4.529793 10.530564 -2.367815
v -2.101200 10.530564 -0.942593
v -3.389778 0.000000 -0.665634
v 2.549900 0.000000 -1.942269
v -0.250641 1.620086 2.269256
v 4.030445 1.620085 -0.353312
v -0.877251 5.670303 2.653112
v 4.271317 5.670304 -0.500868
v 3.453697 9.720519 0.000000
v 0.000000 0.000000 2.115713
v 3.453701 0.000000 0.000000
v 0.686890 9.720519 1.694929
vt 0.800000 0.540000
vt 0.949999 0.540001
vt 0.968750 0.600000
vt 0.780831 0.600000
vt 1.000000 0.700000
vt 0.776190 0.700000
vt 1.000000 0.800000
vt 0.832542 0.800000
vt 0.026774 0.900000
vt 0.160781 0.900000
vt 0.131351 1.000000
vt 0.051397 0.800000
vt 0.138655 0.800000
vt 0.058784 0.770002
vt 0.132017 0.770000
vt 0.800000 0.540000
vt 0.949999 0.540001
vt 0.968750 0.600000
vt 0.780831 0.600000
vt 1.000000 0.700000
vt 0.776190 0.700000
vt 1.000000 0.800000
vt 0.832542 0.800000
vt 0.800000 0.540000
vt 0.949999 0.540001
vt 0.968750 0.600000
vt 0.780831 0.600000
vt 1.000000 0.700000
vt 0.776190 0.700000
vt 1.000000 0.800000
vt 0.832542 0.800000
vt 0.200000 0.660000
vt 0.300000 0.660000
vt 0.316698 0.700000
vt 0.192744 0.700001
vt 0.323673 0.800000
vt 0.174600 0.800000
vt 0.300000 0.900000
vt 0.219889 0.900000
vn -0.381119 -0.000000 0.924526
vn -0.381119 -0.000000 0.924526
vn -0.381119 -0.000000 0.924526
vn -0.381119 -0.000000 0.924526
vn -0.381119 -0.000000 0.924526
vn -0.381119 -0.000000 0.924526
vn -0.381119 -0.000000 0.924526
vn -0.381119 -0.000000 0.924526
vn -0.381119 0.000000 0.924526
vn -0.381119 0.000000 0.924526
vn -0.381119 0.000000 0.924526
vn -0.381119 0.000000 0.924526
vn 0.964972 0.000001 0.262354
vn 0.964972 0.000001 0.262354
vn 0.964972 0.000001 0.262354
vn 0.964972 -0.000000 0.262354
vn 0.964972 -0.000000 0.262354
vn 0.964972 -0.000000 0.262354
vn 0.964972 -0.000000 0.262354
vn 0.964972 0.000003 0.262354
vn 0.964972 0.000003 0.262354
vn 0.964972 0.000003 0.262354
vn 0.964972 0.000003 0.262354
vn -0.915755 0.000002 0.401737
vn -0.915755 0.000002 0.401737
vn -0.915755 0.000002 0.401737
vn -0.915755 0.000002 0.401737
vn -0.915755 0.000000 0.401737
vn -0.915755 0.000000 0.401737
vn -0.915755 0.000000 0.401737
vn -0.915755 0.000000 0.401737
vn -0.915755 -0.000001 0.401737
vn -0.915755 -0.000001 0.401737
vn -0.915755 -0.000001 0.401737
vn -0.915755 -0.000001 0.401737
vn 0.210134 0.000000 0.977672
vn 0.210134 0.000000 0.977673
vn 0.210134 0.000000 0.977672
vn 0.210134 0.000000 0.977672
vn 0.210135 -0.000000 0.977673
vn 0.210134 -0.000000 0.977673
vn 0.210134 -0.000000 0.977673
vn 0.210134 -0.000000 0.977673
vn 0.210135 0.000000 0.977672
vn 0.210135 0.000000 0.977672
vn 0.210135 0.000000 0.977672
vn 0.210135 0.000000 0.977672
vn 0.522370 0.000002 0.852719
vn 0.522370 0.000002 0.852719
vn 0.522370 0.000002 0.852719
vn 0.522370 0.000002 0.852719
vn 0.522370 -0.000000 0.852719
vn 0.522370 -0.000000 0.852719
vn 0.522370 -0.000000 0.852719
vn 0.522370 -0.000000 0.852719
vn 0.522370 -0.000000 0.852719
vn 0.522370 -0.000000 0.852719
vn 0.522370 -0.000000 0.852719
vn 0.522370 -0.000000 0.852719
s off
g polySurface8
usemtl pasted__aiStandardSurface1SG
f 7/1/1 8/2/2 2/3/3 1/4/4
f 1/4/5 2/3/6 4/5/7 3/6/8
f 3/6/9 4/5/10 5/7/11 6/8/12
f 10/9/13 14/10/14 15/11/15
f 9/12/16 13/13/17 14/10/18 10/9/19
f 11/14/20 12/15/21 13/13/22 9/12/23
f 22/16/24 23/17/25 17/18/26 16/19/27
f 16/19/28 17/18/29 19/20/30 18/21/31
f 18/21/32 19/20/33 20/22/34 21/23/35
f 30/24/36 31/25/37 25/26/38 24/27/39
f 24/27/40 25/26/41 27/28/42 26/29/43
f 26/29/44 27/28/45 28/30/46 29/31/47
f 37/32/48 38/33/49 33/34/50 32/35/51
f 32/35/52 33/34/53 35/36/54 34/37/55
f 34/37/56 35/36/57 36/38/58 39/39/59
