# Blender 4.0.1
# www.blender.org
mtllib 无标题1.mtl
o Sprite
v -6.084521 8.714014 5.704758
v -14.199419 8.714011 5.704758
v -6.084521 8.714014 -8.402868
v -14.199419 8.714011 -8.402868
v -14.199419 8.714011 -14.037608
v -6.084521 8.714014 -14.037608
v -1.872301 8.714015 -14.037608
v -1.872301 8.714015 -8.402868
v 2.542219 11.706690 -14.037608
v 2.542219 11.706690 -8.402868
v 2.542219 13.751771 -14.037608
v 2.542219 13.751771 -8.402868
v 8.011589 13.751773 -14.037608
v 8.011589 13.751773 -8.402868
v 8.011589 13.751773 5.567816
v 2.542219 13.751771 5.567816
v -5.858043 13.751768 5.567816
v -5.858043 13.751768 -8.402868
v 8.011588 15.156085 11.517339
v 2.542218 15.156083 11.517339
v 8.011588 15.184720 11.805312
v 2.542218 15.184718 11.805312
v 8.011588 15.184720 15.982112
v 2.542218 15.184718 15.982112
v -3.557817 15.184716 15.982112
v -3.557817 15.184716 11.805312
v -14.199419 8.407431 -14.415778
v -6.084520 8.407434 -14.415778
v -14.199417 2.137883 -14.415778
v -6.084518 2.137886 -14.415778
v -14.199417 2.137883 -20.895758
v -6.084518 2.137886 -20.895758
v -3.228304 2.137887 -20.895758
v -3.228304 2.137887 -14.415778
v 0.427651 2.137888 -20.895758
v 0.427651 2.137888 -14.415778
v 0.427651 2.137888 -3.608907
v -3.228304 2.137887 -3.608907
v 0.427651 2.137888 5.729304
v -3.228304 2.137887 5.729304
v -10.150622 2.137885 3.859784
v -10.150622 2.137885 -1.739386
v -14.462711 2.137883 3.859784
v -14.462711 2.137883 -1.739386
v -14.462712 4.988265 3.859784
v -14.462712 4.988265 -1.739386
v -14.818677 5.076274 3.859784
v -14.818677 5.076274 -1.739386
v -19.409977 5.076273 3.859784
v -19.409977 5.076273 -1.739386
v 2.712942 2.137888 -3.608907
v 2.712942 2.137888 5.729304
v 8.011591 5.658653 -8.402868
v 8.011591 5.658653 5.567816
v 22.136490 5.658658 -8.402868
v 22.136490 5.658658 5.567816
v 27.698799 5.658659 -8.402868
v 27.698799 5.658659 5.567816
v 22.136490 5.658658 -12.621548
v 27.698799 5.658659 -12.621548
v 32.509800 5.658661 -12.621548
v 32.509800 5.658661 -8.402868
v 32.509796 9.559018 1.817457
v 27.698797 9.559017 1.817457
v 32.509796 9.559018 5.837451
v 27.698797 9.559017 5.837451
v 25.371477 9.559016 5.837451
v 25.371477 9.559016 1.817457
v 25.371477 12.523894 5.837451
v 25.371477 12.523894 1.817457
v 25.042009 12.673987 5.837451
v 25.042009 12.673987 1.817457
v 20.064928 12.673985 5.837451
v 20.064928 12.673985 1.817457
v 15.642219 12.673985 5.837451
v 15.642219 12.673985 1.817457
v 15.642219 12.673985 -8.126805
v 20.064928 12.673985 -8.126805
v 15.642219 12.673985 -10.904159
v 20.064928 12.673985 -10.904159
v 8.078158 12.673983 -8.126805
v 8.078158 12.673983 -10.904159
v -22.716318 13.751763 5.740193
v -14.339864 13.751765 -2.476762
v -14.339864 13.751765 5.740193
v -22.716318 13.751763 -2.476762
v -32.584896 13.751760 5.740193
v -32.584896 13.751760 -2.476763
v 2.542217 17.345636 15.982112
v -3.557818 17.345634 15.982112
v 2.542217 17.345636 23.374073
v -3.557818 17.345634 23.374073
v -7.056345 17.345634 23.374073
v -7.056345 17.345634 15.982112
v -6.084521 8.714014 9.308482
v -14.199419 8.714011 9.308481
v -29.256638 8.714007 9.308481
v -29.256638 8.714007 5.704758
v -29.706429 13.751761 5.798341
v -25.594788 13.751762 5.798341
v -22.716318 13.751763 14.516552
v -25.594788 13.751762 9.454911
v -32.584896 13.751760 14.516552
v -29.706429 13.751761 9.454911
v -29.379349 13.690834 6.089219
v -25.921869 13.690835 6.089219
v -25.921869 13.690835 9.164033
v -29.379349 13.690834 9.164033
v -29.379349 12.707886 6.089219
v -25.921869 12.707887 6.089219
v -25.921869 12.707887 9.164033
v -29.379349 12.707886 9.164033
v -20.546389 13.751763 -14.502479
v -16.509796 13.751765 -9.700519
v -20.546389 13.751763 -9.700519
v -16.509796 13.751765 -14.502479
v -20.546389 11.310746 -25.011806
v -16.509796 11.310748 -25.011806
v -20.546389 11.310746 -29.674347
v -16.509796 11.310748 -29.674347
v -10.122860 9.142485 -29.674347
v -10.122860 9.142485 -25.011806
v -5.748442 9.142486 -29.674347
v -5.748442 9.142486 -25.011806
v -31.489828 11.310743 -25.011806
v -26.477549 11.310745 -29.674347
v -26.477549 11.310745 -25.011806
v -31.489828 11.310743 -29.674347
v -1.872302 11.557070 -14.037608
v -1.366968 11.706689 -14.037608
v -1.366968 11.706689 -8.402868
v -1.872302 11.557070 -8.402868
vn -0.0000 1.0000 -0.0000
vn -1.0000 -0.0000 -0.0000
vn -0.0000 0.9733 -0.2297
vn -0.0000 0.9951 -0.0989
vn -0.0000 0.7768 -0.6297
vn 1.0000 -0.0000 -0.0000
vn 0.2400 0.9708 -0.0000
vn -0.0000 0.9343 -0.3565
vn 0.4146 0.9100 -0.0000
vn -0.0000 -0.0000 1.0000
vn -0.0000 -0.0000 -1.0000
vn -0.1831 0.9831 -0.0000
vn -0.0000 0.9788 -0.2050
vn 0.1831 0.9831 -0.0000
vn -0.0000 0.9788 0.2050
vn -0.0000 0.9741 -0.2262
vn 0.3215 0.9469 -0.0000
vn -0.2839 0.9589 -0.0000
vt 2.240854 0.216371
vt 2.013897 0.214353
vt 2.014794 0.113565
vt 2.241749 0.115582
vt 2.237346 0.610931
vt 2.010390 0.608913
vt 2.235945 0.768523
vt 2.008987 0.766505
vt 2.542178 0.604594
vt 2.365036 0.603566
vt 2.365555 0.514186
vt 2.542697 0.515217
vt 2.364226 0.743029
vt 2.364940 0.620134
vt 2.542082 0.621162
vt 2.541368 0.744057
vt 2.355152 0.611978
vt 2.353750 0.769570
vt 2.540995 0.808350
vt 2.363853 0.807322
vt 2.980198 0.810900
vt 2.542529 0.544266
vt 2.981731 0.546820
vt 2.539997 0.980294
vt 2.362854 0.979265
vt 2.979199 0.982844
vt 2.945247 0.016602
vt 2.944669 0.191709
vt 2.748955 0.191063
vt 2.749533 0.015955
vt 2.739690 0.191032
vt 2.740268 0.015924
vt 2.605965 0.190589
vt 2.606543 0.015483
vt 3.599578 0.024539
vt 3.599707 0.191834
vt 3.442750 0.191952
vt 3.442624 0.024659
vt 2.235823 0.782138
vt 2.008866 0.780120
vt 1.023498 0.655929
vt 1.252669 0.656510
vt 1.252413 0.757523
vt 1.023242 0.756942
vt 1.634281 0.887787
vt 1.964536 0.888623
vt 1.964331 0.969445
vt 1.634076 0.968609
vt 1.252085 0.886819
vt 1.022915 0.886238
vt 1.964863 0.759327
vt 1.634608 0.758491
vt 1.701346 0.513844
vt 1.899365 0.514345
vt 1.701732 0.361342
vt 1.899752 0.361844
vt 1.701987 0.260536
vt 1.900007 0.261038
vt 1.702020 0.247568
vt 1.900040 0.248070
vt 1.702431 0.085192
vt 1.900451 0.085694
vt 0.739911 0.533185
vt 0.740876 0.947567
vt 0.321917 0.948542
vt 0.320957 0.534164
vt 0.156935 0.948924
vt 0.155971 0.534533
vt 0.155726 0.409396
vt 0.320694 0.409043
vt 0.013268 0.534767
vt 0.013043 0.409648
vt 0.156462 0.859004
vt 0.013766 0.859221
vt 0.156636 0.978240
vt 0.013941 0.978454
vt 0.985084 0.035937
vt 0.985087 0.150112
vt 0.918987 0.150114
vt 0.918984 0.035939
vt 0.834779 0.150116
vt 0.834776 0.035941
vt 0.824497 0.150116
vt 0.824493 0.035941
vt 0.683138 0.150121
vt 0.683135 0.035946
vt 0.557525 0.150124
vt 0.557522 0.035949
vt 0.683147 0.432556
vt 0.557534 0.432559
vt 0.683149 0.511438
vt 0.557536 0.511441
vt 0.342703 0.511448
vt 0.342701 0.432566
vt 3.318622 0.586753
vt 3.163567 0.587722
vt 3.187962 0.567451
vt 3.298286 0.561837
vt 3.819954 0.598133
vt 3.821687 0.952890
vt 3.459537 0.955089
vt 3.458754 0.600400
vt 2.739045 0.386330
vt 2.605320 0.385888
vt 2.299475 0.384879
vt 2.536136 0.385661
vt 2.535767 0.497671
vt 2.299106 0.496889
vt 2.536781 0.190362
vt 2.234265 0.957484
vt 2.007307 0.955467
vt 3.029117 0.957412
vt 3.023932 0.602410
vt 3.150736 0.599434
vt 3.331781 0.598552
vt 3.332927 0.429151
vt 3.319307 0.440825
vt 3.457633 0.205992
vt 3.021773 0.209090
vt 3.146943 0.429786
vt 0.979959 0.532625
vt 0.980925 0.947007
vt 3.160725 0.441595
vt 3.294009 0.460967
vt 3.181828 0.466621
vt 3.505062 0.373120
vt 3.680082 0.372435
vt 3.680820 0.560583
vt 3.505799 0.561270
vt 3.986976 0.750951
vt 3.842143 0.751062
vt 3.842012 0.578766
vt 3.986846 0.578656
vt 3.841717 0.191649
vt 3.986553 0.191541
vt 3.841591 0.024356
vt 3.986425 0.024246
vt 2.984728 0.408695
vt 2.985028 0.511472
vt 2.555598 0.512729
vt 2.555298 0.409951
vt 1.253396 0.369519
vt 1.024225 0.368938
vt 2.300120 0.189580
s 1
usemtl Main
f 1/1/1 2/2/1 96/3/1 95/4/1
f 2/2/1 1/1/1 3/5/1 4/6/1
f 4/6/1 3/5/1 6/7/1 5/8/1
f 132/9/2 129/10/2 7/11/2 8/12/2
f 9/13/1 130/14/1 131/15/1 10/16/1
f 6/7/1 3/5/1 8/17/1 7/18/1
f 9/13/2 10/16/2 12/19/2 11/20/2
f 16/21/1 12/19/1 18/22/1 17/23/1
f 11/20/1 12/19/1 14/24/1 13/25/1
f 14/24/1 12/19/1 16/21/1 15/26/1
f 15/27/3 16/28/3 20/29/3 19/30/3
f 19/30/4 20/29/4 22/31/4 21/32/4
f 21/32/1 22/31/1 24/33/1 23/34/1
f 5/8/5 6/7/5 28/39/5 27/40/5
f 24/33/1 22/31/1 26/103/1 25/104/1
f 92/105/1 90/106/1 94/107/1 93/108/1
f 24/33/11 25/104/11 90/106/11 89/109/11
f 27/40/11 28/39/11 30/110/11 29/111/11
f 96/138/1 2/139/1 98/140/1 97/141/1
f 130/14/18 129/10/18 132/9/18 131/15/18
f 89/109/1 90/106/1 92/105/1 91/144/1
usemtl Under
f 32/41/1 30/42/1 34/43/1 33/44/1
f 37/45/1 39/46/1 52/47/1 51/48/1
f 33/44/1 34/43/1 36/49/1 35/50/1
f 40/51/1 38/52/1 42/53/1 41/54/1
f 41/54/1 42/53/1 44/55/1 43/56/1
f 43/56/6 44/55/6 46/57/6 45/58/6
f 45/58/7 46/57/7 48/59/7 47/60/7
f 47/60/1 48/59/1 50/61/1 49/62/1
f 37/45/1 38/52/1 40/51/1 39/46/1
f 29/142/1 30/42/1 32/41/1 31/143/1
f 36/49/1 34/43/1 38/52/1 37/45/1
usemtl more
f 53/63/1 54/64/1 56/65/1 55/66/1
f 55/66/1 56/65/1 58/67/1 57/68/1
f 55/66/1 57/68/1 60/69/1 59/70/1
f 60/69/1 57/68/1 62/71/1 61/72/1
f 62/71/8 57/68/8 64/73/8 63/74/8
f 63/74/1 64/73/1 66/75/1 65/76/1
f 66/77/1 64/78/1 68/79/1 67/80/1
f 67/80/6 68/79/6 70/81/6 69/82/6
f 69/82/9 70/81/9 72/83/9 71/84/9
f 71/84/1 72/83/1 74/85/1 73/86/1
f 73/86/1 74/85/1 76/87/1 75/88/1
f 76/87/1 74/85/1 78/89/1 77/90/1
f 77/90/1 78/89/1 80/91/1 79/92/1
f 77/90/1 79/92/1 82/93/1 81/94/1
f 14/121/6 15/122/6 54/64/6 53/63/6
usemtl Last
f 121/35/1 122/36/1 124/37/1 123/38/1
f 106/95/10 105/96/10 109/97/10 110/98/10
f 85/99/1 84/100/1 86/101/1 83/102/1
f 83/102/1 86/101/1 88/112/1 87/113/1
f 99/114/1 83/102/1 87/113/1
f 99/114/1 100/115/1 83/102/1
f 102/116/12 100/115/12 106/95/12 107/117/12
f 101/118/1 83/102/1 100/115/1 102/116/1
f 103/119/1 101/118/1 102/116/1 104/120/1
f 104/120/13 102/116/13 107/117/13 108/123/13
f 99/114/14 104/120/14 108/123/14 105/96/14
f 100/115/15 99/114/15 105/96/15 106/95/15
f 107/117/2 106/95/2 110/98/2 111/124/2
f 108/123/11 107/117/11 111/124/11 112/125/11
f 105/96/6 108/123/6 112/125/6 109/97/6
f 87/113/1 103/119/1 104/120/1 99/114/1
f 127/126/1 126/127/1 128/128/1 125/129/1
f 115/130/1 114/131/1 116/132/1 113/133/1
f 113/133/16 116/132/16 118/134/16 117/135/16
f 117/135/1 118/134/1 120/136/1 119/137/1
f 120/136/17 118/134/17 122/36/17 121/35/17
